<svg id="homepage" xmlns="http://www.w3.org/2000/svg" xmlns:xlink="http://www.w3.org/1999/xlink" width="1920" height="1080" viewBox="0 0 1920 1080">
  <defs>
    <linearGradient id="linear-gradient" x1="0.5" x2="0.513" y2="1.589" gradientUnits="objectBoundingBox">
      <stop offset="0" stop-color="#fff"/>
      <stop offset="1" stop-color="#b8b8b8" stop-opacity="0"/>
    </linearGradient>
    <linearGradient id="linear-gradient-2" x1="0.5" x2="0.5" y2="1" gradientUnits="objectBoundingBox">
      <stop offset="0" stop-color="#f80"/>
      <stop offset="1" stop-color="#fff"/>
    </linearGradient>
    <linearGradient id="linear-gradient-3" x1="0.489" y1="0.5" x2="0.491" y2="1.112" gradientUnits="objectBoundingBox">
      <stop offset="0" stop-color="#5d5d5d"/>
      <stop offset="1" stop-color="#ff9f32"/>
    </linearGradient>
    <linearGradient id="linear-gradient-4" x1="0.5" x2="0.5" y2="1" gradientUnits="objectBoundingBox">
      <stop offset="0" stop-color="#e19a4a"/>
      <stop offset="1" stop-color="#ffb219"/>
    </linearGradient>
    <linearGradient id="linear-gradient-35" x1="0.5" x2="0.5" y2="1" gradientUnits="objectBoundingBox">
      <stop offset="0" stop-color="#2d7dd2"/>
      <stop offset="1" stop-color="#fff"/>
    </linearGradient>
    <linearGradient id="linear-gradient-36" x1="0.5" x2="0.5" y2="1" gradientUnits="objectBoundingBox">
      <stop offset="0" stop-color="#4a6de1"/>
      <stop offset="1" stop-color="#9cceff"/>
    </linearGradient>
    <linearGradient id="linear-gradient-67" x1="0.5" y1="1" x2="0.5" gradientUnits="objectBoundingBox">
      <stop offset="0" stop-color="gray" stop-opacity="0.251"/>
      <stop offset="0.54" stop-color="gray" stop-opacity="0.122"/>
      <stop offset="1" stop-color="gray" stop-opacity="0.102"/>
    </linearGradient>
    <linearGradient id="linear-gradient-69" x1="0" y1="0.5" x2="1" y2="0.5" xlink:href="#linear-gradient-67"/>
  </defs>
  <rect id="Rectangle_7" data-name="Rectangle 7" width="1920" height="1080" fill="url(#linear-gradient)"/>
  <text id="Welcome_to" data-name="Welcome to" transform="translate(215 322)" fill="#5d5d5d" font-size="67" font-family="NirmalaUI-Semilight, Nirmala UI" font-weight="300"><tspan x="0" y="0">Welcome to</tspan></text>
  <text id="Quantum_Academia" data-name="Quantum Academia" transform="translate(221 386)" fill="#5d5d5d" font-size="60" font-family="CalisMTBol, Calisto MT"><tspan x="0" y="0">Quantum Academia</tspan></text>
  <g id="Ellipse_30" data-name="Ellipse 30" transform="translate(313 501)" stroke="#df7700" stroke-width="3" fill="url(#linear-gradient-2)">
    <ellipse cx="183.5" cy="15" rx="183.5" ry="15" stroke="none"/>
    <ellipse cx="183.5" cy="15" rx="182" ry="13.5" fill="none"/>
  </g>
  <path id="Path_104" data-name="Path 104" d="M12.168-18.525V0H6.426V-49.014H19.893q7.861,0,12.185,3.828t4.324,10.8a14.855,14.855,0,0,1-4.8,11.416q-4.8,4.443-12.971,4.443Zm0-25.293v20.1h6.016q5.947,0,9.075-2.717a9.62,9.62,0,0,0,3.127-7.673q0-9.707-11.484-9.707ZM56.909.82q-7.759,0-12.39-4.9T39.888-17.09q0-8.818,4.819-13.774T57.729-35.82q7.827,0,12.219,4.819t4.392,13.364q0,8.374-4.734,13.416T56.909.82Zm.41-31.924a10.662,10.662,0,0,0-8.545,3.674Q45.63-23.755,45.63-17.295q0,6.221,3.179,9.81A10.8,10.8,0,0,0,57.319-3.9q5.435,0,8.357-3.521T68.6-17.432q0-6.562-2.922-10.117T57.319-31.1Zm44.229,1.777a6.854,6.854,0,0,0-4.238-1.128,7.153,7.153,0,0,0-6,3.384q-2.41,3.384-2.41,9.229V0H83.3V-35H88.9v7.212h.137A12.222,12.222,0,0,1,92.7-33.547a8.34,8.34,0,0,1,5.5-2.068,9.151,9.151,0,0,1,3.35.479ZM125.884-.342A10.807,10.807,0,0,1,120.654.752Q111.46.752,111.46-9.5V-30.215h-6.016V-35h6.016v-8.545l5.605-1.812V-35h8.818v4.785h-8.818v19.722q0,3.521,1.2,5.024a4.774,4.774,0,0,0,3.965,1.5,5.893,5.893,0,0,0,3.657-1.162ZM158.423,0h-5.605V-5.469h-.137A11.735,11.735,0,0,1,141.914.82q-5.229,0-8.186-2.769A9.592,9.592,0,0,1,130.771-9.3q0-9.81,11.553-11.416l10.493-1.47q0-8.921-7.212-8.921A17.23,17.23,0,0,0,134.189-26.8v-5.742a21.69,21.69,0,0,1,11.895-3.281q12.339,0,12.339,13.057Zm-5.605-17.705-8.442,1.162a13.707,13.707,0,0,0-5.879,1.931q-1.982,1.384-1.982,4.9a5.342,5.342,0,0,0,1.829,4.187A7.066,7.066,0,0,0,143.213-3.9,9,9,0,0,0,150.1-6.819a10.441,10.441,0,0,0,2.717-7.4ZM174.59,0h-5.605V-51.816h5.605Z" transform="translate(406 483)" fill="url(#linear-gradient-3)"/>
  <g id="portalLines" transform="translate(-51 -107)">
    <path id="Path_78" data-name="Path 78" d="M6323.939,581.982c18.647,16.684,22.246,19.3,22.246,19.3a100.942,100.942,0,0,0-11.113-11.927A52.218,52.218,0,0,0,6323.939,581.982Z" transform="translate(-5981 5)" fill="url(#linear-gradient-4)"/>
    <path id="Path_79" data-name="Path 79" d="M6323.939,581.982c18.647,16.684,22.246,19.3,22.246,19.3a100.942,100.942,0,0,0-11.113-11.927A52.218,52.218,0,0,0,6323.939,581.982Z" transform="matrix(0.996, 0.087, -0.087, 0.996, -5893.329, -542.886)" fill="url(#linear-gradient-4)"/>
    <path id="Path_80" data-name="Path 80" d="M6323.939,581.982c18.647,16.684,22.246,19.3,22.246,19.3a100.942,100.942,0,0,0-11.113-11.927A52.218,52.218,0,0,0,6323.939,581.982Z" transform="matrix(0.996, 0.087, -0.087, 0.996, -5881.329, -540.886)" fill="url(#linear-gradient-4)"/>
    <path id="Path_81" data-name="Path 81" d="M6323.939,581.982c12.41,11.1,14.8,12.845,14.8,12.845a67.183,67.183,0,0,0-7.4-7.937A34.746,34.746,0,0,0,6323.939,581.982Z" transform="matrix(0.996, 0.087, -0.087, 0.996, -5866.479, -533.806)" fill="url(#linear-gradient-4)"/>
    <path id="Path_82" data-name="Path 82" d="M6323.939,581.982c8.261,7.391,9.854,8.55,9.854,8.55a32.245,32.245,0,0,0-4.659-5.392A19.135,19.135,0,0,0,6323.939,581.982Z" transform="matrix(0.996, 0.087, -0.087, 0.996, -5854.922, -529.096)" fill="url(#linear-gradient-4)"/>
    <path id="Path_83" data-name="Path 83" d="M6323.939,581.982c18.647,16.684,22.246,19.3,22.246,19.3a100.942,100.942,0,0,0-11.113-11.927A52.218,52.218,0,0,0,6323.939,581.982Z" transform="matrix(-0.07, -0.998, 0.998, -0.07, 582.782, 6954.532)" fill="url(#linear-gradient-4)"/>
    <path id="Path_84" data-name="Path 84" d="M6323.939,581.982c18.647,16.684,22.246,19.3,22.246,19.3a100.942,100.942,0,0,0-11.113-11.927A52.218,52.218,0,0,0,6323.939,581.982Z" transform="matrix(-0.07, -0.998, 0.998, -0.07, 570.782, 6956.532)" fill="url(#linear-gradient-4)"/>
    <path id="Path_85" data-name="Path 85" d="M6323.939,581.982c14.753,13.2,17.6,15.271,17.6,15.271a79.835,79.835,0,0,0-8.792-9.436A41.305,41.305,0,0,0,6323.939,581.982Z" transform="matrix(-0.07, -0.998, 0.998, -0.07, 560.782, 6957.532)" fill="url(#linear-gradient-4)"/>
    <path id="Path_86" data-name="Path 86" d="M6323.938,581.982c11.233,10.05,13.4,11.626,13.4,11.626a60.807,60.807,0,0,0-6.694-7.184A31.459,31.459,0,0,0,6323.938,581.982Z" transform="matrix(-0.07, -0.998, 0.998, -0.07, 551.782, 6958.532)" fill="url(#linear-gradient-4)"/>
    <path id="Path_87" data-name="Path 87" d="M6323.938,581.982c7.015,6.276,8.369,7.261,8.369,7.261a26.842,26.842,0,0,0-4.069-4.924A11.257,11.257,0,0,0,6323.938,581.982Z" transform="matrix(-0.07, -0.998, 0.998, -0.07, 543.782, 6958.532)" fill="url(#linear-gradient-4)"/>
    <path id="Path_88" data-name="Path 88" d="M6323.939,581.982c18.647,16.684,22.246,19.3,22.246,19.3a100.942,100.942,0,0,0-11.113-11.927A52.218,52.218,0,0,0,6323.939,581.982Z" transform="matrix(0.996, 0.087, -0.087, 0.996, -5807.329, -544.886)" fill="url(#linear-gradient-4)"/>
    <path id="Path_89" data-name="Path 89" d="M6323.939,581.982c18.647,16.684,22.246,19.3,22.246,19.3a100.942,100.942,0,0,0-11.113-11.927A52.218,52.218,0,0,0,6323.939,581.982Z" transform="translate(53.429 6931.694) rotate(-90)" fill="url(#linear-gradient-4)"/>
    <path id="Path_90" data-name="Path 90" d="M6323.939,581.982c18.647,16.684,22.246,19.3,22.246,19.3a100.942,100.942,0,0,0-11.113-11.927A52.218,52.218,0,0,0,6323.939,581.982Z" transform="translate(56.429 6920.694) rotate(-90)" fill="url(#linear-gradient-4)"/>
    <path id="Path_91" data-name="Path 91" d="M6323.939,581.982c18.647,16.684,22.246,19.3,22.246,19.3a100.942,100.942,0,0,0-11.113-11.927A52.218,52.218,0,0,0,6323.939,581.982Z" transform="translate(58.429 6909.694) rotate(-90)" fill="url(#linear-gradient-4)"/>
    <path id="Path_92" data-name="Path 92" d="M6323.939,581.982c18.647,16.684,22.246,19.3,22.246,19.3a100.942,100.942,0,0,0-11.113-11.927A52.218,52.218,0,0,0,6323.939,581.982Z" transform="matrix(0.996, 0.087, -0.087, 0.996, -5810.329, -555.886)" fill="url(#linear-gradient-4)"/>
    <path id="Path_93" data-name="Path 93" d="M6323.939,581.982c18.647,16.684,22.246,19.3,22.246,19.3a100.942,100.942,0,0,0-11.113-11.927A52.218,52.218,0,0,0,6323.939,581.982Z" transform="matrix(0.996, 0.087, -0.087, 0.996, -5814.329, -566.886)" fill="url(#linear-gradient-4)"/>
    <path id="Path_94" data-name="Path 94" d="M6323.938,581.982c9.409,7.741,11.224,8.956,11.224,8.956a31.007,31.007,0,0,0-5.259-5.861A18.483,18.483,0,0,0,6323.938,581.982Z" transform="translate(-4656.784 -3162.167) rotate(31)" fill="url(#linear-gradient-4)"/>
    <path id="Path_95" data-name="Path 95" d="M6323.938,581.982c9.409,7.741,11.224,8.956,11.224,8.956a31.007,31.007,0,0,0-5.259-5.861A18.483,18.483,0,0,0,6323.938,581.982Z" transform="matrix(-0.259, -0.966, 0.966, -0.259, 1703.382, 6865.15)" fill="url(#linear-gradient-4)"/>
    <path id="Path_96" data-name="Path 96" d="M6323.938,581.982c9.409,7.741,11.224,8.956,11.224,8.956a31.007,31.007,0,0,0-5.259-5.861A18.483,18.483,0,0,0,6323.938,581.982Z" transform="matrix(-0.259, -0.966, 0.966, -0.259, 1697.382, 6867.15)" fill="url(#linear-gradient-4)"/>
    <path id="Path_97" data-name="Path 97" d="M6323.938,581.982c11.593,9.357,13.829,10.825,13.829,10.825a37.711,37.711,0,0,0-6.479-7.085A22.957,22.957,0,0,0,6323.938,581.982Z" transform="matrix(-0.259, -0.966, 0.966, -0.259, 1690.251, 6867.15)" fill="url(#linear-gradient-4)"/>
    <path id="Path_98" data-name="Path 98" d="M6323.938,581.982c8.6,7.076,10.259,8.186,10.259,8.186a28.339,28.339,0,0,0-4.807-5.357A16.9,16.9,0,0,0,6323.938,581.982Z" transform="matrix(-0.259, -0.966, 0.966, -0.259, 1683.876, 6863.019)" fill="url(#linear-gradient-4)"/>
    <path id="Path_99" data-name="Path 99" d="M6323.939,581.982c9.9,8.148,11.814,9.427,11.814,9.427a32.631,32.631,0,0,0-5.536-6.17A19.454,19.454,0,0,0,6323.939,581.982Z" transform="matrix(-0.259, -0.966, 0.966, -0.259, 1675.08, 6867.842)" fill="url(#linear-gradient-4)"/>
    <path id="Path_100" data-name="Path 100" d="M6323.938,581.982c6.248,5.141,7.454,5.947,7.454,5.947a13.719,13.719,0,0,0-3.111-3.976A11.424,11.424,0,0,0,6323.938,581.982Z" transform="translate(-4649.102 -3157.646) rotate(31)" fill="url(#linear-gradient-4)"/>
    <path id="Path_101" data-name="Path 101" d="M6323.938,581.982c7.2,6.749,8.593,7.807,8.593,7.807a18.01,18.01,0,0,0-3.586-5.219A12.386,12.386,0,0,0,6323.938,581.982Z" transform="translate(-4644.102 -3162.646) rotate(31)" fill="url(#linear-gradient-4)"/>
    <path id="Path_102" data-name="Path 102" d="M6323.938,581.982c8.914,9.893,10.634,11.444,10.634,11.444a27.249,27.249,0,0,0-4.438-7.651A14.474,14.474,0,0,0,6323.938,581.982Z" transform="matrix(0.946, 0.326, -0.326, 0.946, -5309.254, -2020.365)" fill="url(#linear-gradient-4)"/>
    <path id="Path_103" data-name="Path 103" d="M6323.938,581.982c6.705,7.573,8,8.761,8,8.761a20.963,20.963,0,0,0-3.338-5.857A10.843,10.843,0,0,0,6323.938,581.982Z" transform="matrix(0.94, 0.342, -0.342, 0.94, -5253.615, -2114.518)" fill="url(#linear-gradient-4)"/>
    <path id="Path_105" data-name="Path 105" d="M6323.939,581.982c18.647,16.684,22.246,19.3,22.246,19.3a100.942,100.942,0,0,0-11.113-11.927A52.218,52.218,0,0,0,6323.939,581.982Z" transform="matrix(0.996, 0.087, -0.087, 0.996, -5850.329, -541.886)" fill="url(#linear-gradient-4)"/>
    <path id="Path_106" data-name="Path 106" d="M6323.939,581.982c18.647,16.684,22.246,19.3,22.246,19.3a100.942,100.942,0,0,0-11.113-11.927A52.218,52.218,0,0,0,6323.939,581.982Z" transform="matrix(0.996, 0.087, -0.087, 0.996, -5846.329, -554.886)" fill="url(#linear-gradient-4)"/>
    <path id="Path_107" data-name="Path 107" d="M6323.939,581.982c18.647,16.684,22.246,19.3,22.246,19.3a100.942,100.942,0,0,0-11.113-11.927A52.218,52.218,0,0,0,6323.939,581.982Z" transform="translate(107.43 6905.694) rotate(-90)" fill="url(#linear-gradient-4)"/>
    <path id="Path_108" data-name="Path 108" d="M6323.939,581.982c18.647,16.684,22.246,19.3,22.246,19.3a100.942,100.942,0,0,0-11.113-11.927A52.218,52.218,0,0,0,6323.939,581.982Z" transform="translate(87.43 6914.694) rotate(-90)" fill="url(#linear-gradient-4)"/>
    <path id="Path_109" data-name="Path 109" d="M6323.939,581.982c18.647,16.684,22.246,19.3,22.246,19.3a100.942,100.942,0,0,0-11.113-11.927A52.218,52.218,0,0,0,6323.939,581.982Z" transform="translate(87.43 6933.694) rotate(-90)" fill="url(#linear-gradient-4)"/>
  </g>
  <g id="Ellipse_31" data-name="Ellipse 31" transform="translate(191.957 659.553) rotate(90)" stroke="#2d7dd2" stroke-width="3" fill="url(#linear-gradient-35)">
    <ellipse cx="183.5" cy="15" rx="183.5" ry="15" stroke="none"/>
    <ellipse cx="183.5" cy="15" rx="182" ry="13.5" fill="none"/>
  </g>
  <g id="portalLines-2" data-name="portalLines" transform="translate(799.957 295.553) rotate(90)">
    <path id="Path_78-2" data-name="Path 78" d="M6323.939,581.982c18.647,16.684,22.246,19.3,22.246,19.3a100.942,100.942,0,0,0-11.113-11.927A52.218,52.218,0,0,0,6323.939,581.982Z" transform="translate(-5981 5)" fill="url(#linear-gradient-36)"/>
    <path id="Path_79-2" data-name="Path 79" d="M6323.939,581.982c18.647,16.684,22.246,19.3,22.246,19.3a100.942,100.942,0,0,0-11.113-11.927A52.218,52.218,0,0,0,6323.939,581.982Z" transform="matrix(0.996, 0.087, -0.087, 0.996, -5893.329, -542.886)" fill="url(#linear-gradient-36)"/>
    <path id="Path_80-2" data-name="Path 80" d="M6323.939,581.982c18.647,16.684,22.246,19.3,22.246,19.3a100.942,100.942,0,0,0-11.113-11.927A52.218,52.218,0,0,0,6323.939,581.982Z" transform="matrix(0.996, 0.087, -0.087, 0.996, -5881.329, -540.886)" fill="url(#linear-gradient-36)"/>
    <path id="Path_81-2" data-name="Path 81" d="M6323.939,581.982c12.41,11.1,14.8,12.845,14.8,12.845a67.183,67.183,0,0,0-7.4-7.937A34.746,34.746,0,0,0,6323.939,581.982Z" transform="matrix(0.996, 0.087, -0.087, 0.996, -5866.479, -533.806)" fill="url(#linear-gradient-36)"/>
    <path id="Path_82-2" data-name="Path 82" d="M6323.939,581.982c8.261,7.391,9.854,8.55,9.854,8.55a32.245,32.245,0,0,0-4.659-5.392A19.135,19.135,0,0,0,6323.939,581.982Z" transform="matrix(0.996, 0.087, -0.087, 0.996, -5854.922, -529.096)" fill="url(#linear-gradient-36)"/>
    <path id="Path_83-2" data-name="Path 83" d="M6323.939,581.982c18.647,16.684,22.246,19.3,22.246,19.3a100.942,100.942,0,0,0-11.113-11.927A52.218,52.218,0,0,0,6323.939,581.982Z" transform="matrix(-0.07, -0.998, 0.998, -0.07, 582.782, 6954.532)" fill="url(#linear-gradient-36)"/>
    <path id="Path_84-2" data-name="Path 84" d="M6323.939,581.982c18.647,16.684,22.246,19.3,22.246,19.3a100.942,100.942,0,0,0-11.113-11.927A52.218,52.218,0,0,0,6323.939,581.982Z" transform="matrix(-0.07, -0.998, 0.998, -0.07, 570.782, 6956.532)" fill="url(#linear-gradient-36)"/>
    <path id="Path_85-2" data-name="Path 85" d="M6323.939,581.982c14.753,13.2,17.6,15.271,17.6,15.271a79.835,79.835,0,0,0-8.792-9.436A41.305,41.305,0,0,0,6323.939,581.982Z" transform="matrix(-0.07, -0.998, 0.998, -0.07, 560.782, 6957.532)" fill="url(#linear-gradient-36)"/>
    <path id="Path_86-2" data-name="Path 86" d="M6323.938,581.982c11.233,10.05,13.4,11.626,13.4,11.626a60.807,60.807,0,0,0-6.694-7.184A31.459,31.459,0,0,0,6323.938,581.982Z" transform="matrix(-0.07, -0.998, 0.998, -0.07, 551.782, 6958.532)" fill="url(#linear-gradient-36)"/>
    <path id="Path_87-2" data-name="Path 87" d="M6323.938,581.982c7.015,6.276,8.369,7.261,8.369,7.261a26.842,26.842,0,0,0-4.069-4.924A11.257,11.257,0,0,0,6323.938,581.982Z" transform="matrix(-0.07, -0.998, 0.998, -0.07, 543.782, 6958.532)" fill="url(#linear-gradient-36)"/>
    <path id="Path_88-2" data-name="Path 88" d="M6323.939,581.982c18.647,16.684,22.246,19.3,22.246,19.3a100.942,100.942,0,0,0-11.113-11.927A52.218,52.218,0,0,0,6323.939,581.982Z" transform="matrix(0.996, 0.087, -0.087, 0.996, -5807.329, -544.886)" fill="url(#linear-gradient-36)"/>
    <path id="Path_89-2" data-name="Path 89" d="M6323.939,581.982c18.647,16.684,22.246,19.3,22.246,19.3a100.942,100.942,0,0,0-11.113-11.927A52.218,52.218,0,0,0,6323.939,581.982Z" transform="translate(53.429 6931.694) rotate(-90)" fill="url(#linear-gradient-36)"/>
    <path id="Path_90-2" data-name="Path 90" d="M6323.939,581.982c18.647,16.684,22.246,19.3,22.246,19.3a100.942,100.942,0,0,0-11.113-11.927A52.218,52.218,0,0,0,6323.939,581.982Z" transform="translate(56.429 6920.694) rotate(-90)" fill="url(#linear-gradient-36)"/>
    <path id="Path_91-2" data-name="Path 91" d="M6323.939,581.982c18.647,16.684,22.246,19.3,22.246,19.3a100.942,100.942,0,0,0-11.113-11.927A52.218,52.218,0,0,0,6323.939,581.982Z" transform="translate(58.429 6909.694) rotate(-90)" fill="url(#linear-gradient-36)"/>
    <path id="Path_92-2" data-name="Path 92" d="M6323.939,581.982c18.647,16.684,22.246,19.3,22.246,19.3a100.942,100.942,0,0,0-11.113-11.927A52.218,52.218,0,0,0,6323.939,581.982Z" transform="matrix(0.996, 0.087, -0.087, 0.996, -5810.329, -555.886)" fill="url(#linear-gradient-36)"/>
    <path id="Path_93-2" data-name="Path 93" d="M6323.939,581.982c18.647,16.684,22.246,19.3,22.246,19.3a100.942,100.942,0,0,0-11.113-11.927A52.218,52.218,0,0,0,6323.939,581.982Z" transform="matrix(0.996, 0.087, -0.087, 0.996, -5814.329, -566.886)" fill="url(#linear-gradient-36)"/>
    <path id="Path_94-2" data-name="Path 94" d="M6323.938,581.982c9.409,7.741,11.224,8.956,11.224,8.956a31.007,31.007,0,0,0-5.259-5.861A18.483,18.483,0,0,0,6323.938,581.982Z" transform="translate(-4656.784 -3162.167) rotate(31)" fill="url(#linear-gradient-36)"/>
    <path id="Path_95-2" data-name="Path 95" d="M6323.938,581.982c9.409,7.741,11.224,8.956,11.224,8.956a31.007,31.007,0,0,0-5.259-5.861A18.483,18.483,0,0,0,6323.938,581.982Z" transform="matrix(-0.259, -0.966, 0.966, -0.259, 1703.382, 6865.15)" fill="url(#linear-gradient-36)"/>
    <path id="Path_96-2" data-name="Path 96" d="M6323.938,581.982c9.409,7.741,11.224,8.956,11.224,8.956a31.007,31.007,0,0,0-5.259-5.861A18.483,18.483,0,0,0,6323.938,581.982Z" transform="matrix(-0.259, -0.966, 0.966, -0.259, 1697.382, 6867.15)" fill="url(#linear-gradient-36)"/>
    <path id="Path_97-2" data-name="Path 97" d="M6323.938,581.982c11.593,9.357,13.829,10.825,13.829,10.825a37.711,37.711,0,0,0-6.479-7.085A22.957,22.957,0,0,0,6323.938,581.982Z" transform="matrix(-0.259, -0.966, 0.966, -0.259, 1690.251, 6867.15)" fill="url(#linear-gradient-36)"/>
    <path id="Path_98-2" data-name="Path 98" d="M6323.938,581.982c8.6,7.076,10.259,8.186,10.259,8.186a28.339,28.339,0,0,0-4.807-5.357A16.9,16.9,0,0,0,6323.938,581.982Z" transform="matrix(-0.259, -0.966, 0.966, -0.259, 1683.876, 6863.019)" fill="url(#linear-gradient-36)"/>
    <path id="Path_99-2" data-name="Path 99" d="M6323.939,581.982c9.9,8.148,11.814,9.427,11.814,9.427a32.631,32.631,0,0,0-5.536-6.17A19.454,19.454,0,0,0,6323.939,581.982Z" transform="matrix(-0.259, -0.966, 0.966, -0.259, 1675.08, 6867.842)" fill="url(#linear-gradient-36)"/>
    <path id="Path_100-2" data-name="Path 100" d="M6323.938,581.982c6.248,5.141,7.454,5.947,7.454,5.947a13.719,13.719,0,0,0-3.111-3.976A11.424,11.424,0,0,0,6323.938,581.982Z" transform="translate(-4649.102 -3157.646) rotate(31)" fill="url(#linear-gradient-36)"/>
    <path id="Path_101-2" data-name="Path 101" d="M6323.938,581.982c7.2,6.749,8.593,7.807,8.593,7.807a18.01,18.01,0,0,0-3.586-5.219A12.386,12.386,0,0,0,6323.938,581.982Z" transform="translate(-4644.102 -3162.646) rotate(31)" fill="url(#linear-gradient-36)"/>
    <path id="Path_102-2" data-name="Path 102" d="M6323.938,581.982c8.914,9.893,10.634,11.444,10.634,11.444a27.249,27.249,0,0,0-4.438-7.651A14.474,14.474,0,0,0,6323.938,581.982Z" transform="matrix(0.946, 0.326, -0.326, 0.946, -5309.254, -2020.365)" fill="url(#linear-gradient-36)"/>
    <path id="Path_103-2" data-name="Path 103" d="M6323.938,581.982c6.705,7.573,8,8.761,8,8.761a20.963,20.963,0,0,0-3.338-5.857A10.843,10.843,0,0,0,6323.938,581.982Z" transform="matrix(0.94, 0.342, -0.342, 0.94, -5253.615, -2114.518)" fill="url(#linear-gradient-36)"/>
    <path id="Path_105-2" data-name="Path 105" d="M6323.939,581.982c18.647,16.684,22.246,19.3,22.246,19.3a100.942,100.942,0,0,0-11.113-11.927A52.218,52.218,0,0,0,6323.939,581.982Z" transform="matrix(0.996, 0.087, -0.087, 0.996, -5850.329, -541.886)" fill="url(#linear-gradient-36)"/>
    <path id="Path_106-2" data-name="Path 106" d="M6323.939,581.982c18.647,16.684,22.246,19.3,22.246,19.3a100.942,100.942,0,0,0-11.113-11.927A52.218,52.218,0,0,0,6323.939,581.982Z" transform="matrix(0.996, 0.087, -0.087, 0.996, -5846.329, -554.886)" fill="url(#linear-gradient-36)"/>
    <path id="Path_107-2" data-name="Path 107" d="M6323.939,581.982c18.647,16.684,22.246,19.3,22.246,19.3a100.942,100.942,0,0,0-11.113-11.927A52.218,52.218,0,0,0,6323.939,581.982Z" transform="translate(107.43 6905.694) rotate(-90)" fill="url(#linear-gradient-36)"/>
    <path id="Path_108-2" data-name="Path 108" d="M6323.939,581.982c18.647,16.684,22.246,19.3,22.246,19.3a100.942,100.942,0,0,0-11.113-11.927A52.218,52.218,0,0,0,6323.939,581.982Z" transform="translate(87.43 6914.694) rotate(-90)" fill="url(#linear-gradient-36)"/>
    <path id="Path_109-2" data-name="Path 109" d="M6323.939,581.982c18.647,16.684,22.246,19.3,22.246,19.3a100.942,100.942,0,0,0-11.113-11.927A52.218,52.218,0,0,0,6323.939,581.982Z" transform="translate(87.43 6933.694) rotate(-90)" fill="url(#linear-gradient-36)"/>
  </g>
  <g id="book" transform="translate(712.896 871.502) rotate(180)">
    <circle id="Ellipse_32" data-name="Ellipse 32" cx="37.14" cy="37.14" r="37.14" transform="translate(355.811 95.982)" fill="#c8c8c8" opacity="0.3"/>
    <path id="Path_117" data-name="Path 117" d="M378.239,85.873l-24.729,30,36.6,43.192,24.4-28.685Z" transform="translate(-0.54)" fill="#87d27f"/>
    <path id="Path_118" data-name="Path 118" d="M378.3,85.751,353.51,115.877l36.6,43.192,24.4-28.685Z" transform="translate(-0.54)" fill="#812b2b" opacity="0.1"/>
    <path id="Path_119" data-name="Path 119" d="M439.739,295.646h0a12.43,12.43,0,0,1,2.016-2.692l22.712-23.026s7.913-1.319,9.562,2.638l-29.015,23.739Z" transform="translate(-85.78 -179.44)" fill="#f2f2f2"/>
    <path id="Path_120" data-name="Path 120" d="M434.8,292.6l33.631,51.435s3.3,2.308,6.594.989l34.455-23.245-36.6-55.392L439.916,292.11Z" transform="translate(-82 -176.892)" fill="#87d27f"/>
    <rect id="Rectangle_26" data-name="Rectangle 26" width="25.987" height="0.534" transform="matrix(0.812, -0.584, 0.584, 0.812, 365.672, 112.691)" fill="#3f3d56"/>
    <rect id="Rectangle_27" data-name="Rectangle 27" width="0.534" height="50.204" transform="matrix(0.834, -0.552, 0.552, 0.834, 364.947, 118.662)" fill="#3f3d56"/>
    <rect id="Rectangle_28" data-name="Rectangle 28" width="27.829" height="0.535" transform="translate(396.006 161.495) rotate(-36.344)" fill="#3f3d56"/>
    <rect id="Rectangle_29" data-name="Rectangle 29" width="0.534" height="50.214" transform="translate(390.338 98.554) rotate(-34.838)" fill="#3f3d56"/>
    <rect id="Rectangle_30" data-name="Rectangle 30" width="35.412" height="0.33" transform="translate(355.826 114.107) rotate(-42.545)" fill="#3f3d56"/>
    <rect id="Rectangle_31" data-name="Rectangle 31" width="36.373" height="0.33" transform="translate(356.822 114.439) rotate(-41.439)" fill="#3f3d56"/>
    <rect id="Rectangle_32" data-name="Rectangle 32" width="36.85" height="0.33" transform="matrix(0.768, -0.64, 0.64, 0.768, 357.489, 114.442)" fill="#3f3d56"/>
  </g>
  <g id="book-2" data-name="book" transform="translate(49.352 1181.697) rotate(-80)">
    <circle id="Ellipse_32-2" data-name="Ellipse 32" cx="37.14" cy="37.14" r="37.14" transform="translate(355.811 95.982)" fill="#7b7b7b" opacity="0.3"/>
    <path id="Path_117-2" data-name="Path 117" d="M378.239,85.873l-24.729,30,36.6,43.192,24.4-28.685Z" transform="translate(-0.54)" fill="#6c63ff"/>
    <path id="Path_118-2" data-name="Path 118" d="M378.239,85.873l-24.729,30,36.6,43.192,24.4-28.685Z" transform="translate(-0.54)" opacity="0.1"/>
    <path id="Path_119-2" data-name="Path 119" d="M439.739,295.646h0a12.43,12.43,0,0,1,2.016-2.692l22.712-23.026s7.913-1.319,9.562,2.638l-29.015,23.739Z" transform="translate(-85.78 -179.44)" fill="#f2f2f2"/>
    <path id="Path_120-2" data-name="Path 120" d="M434.8,292.6l33.631,51.435s3.3,2.308,6.594.989l34.455-23.245-36.6-55.392L439.916,292.11Z" transform="translate(-82 -176.892)" fill="#6c63ff"/>
    <rect id="Rectangle_26-2" data-name="Rectangle 26" width="25.987" height="0.534" transform="matrix(0.812, -0.584, 0.584, 0.812, 365.672, 112.691)" fill="#3f3d56"/>
    <rect id="Rectangle_27-2" data-name="Rectangle 27" width="0.534" height="50.204" transform="matrix(0.834, -0.552, 0.552, 0.834, 364.947, 118.662)" fill="#3f3d56"/>
    <rect id="Rectangle_28-2" data-name="Rectangle 28" width="27.829" height="0.535" transform="translate(396.006 161.495) rotate(-36.344)" fill="#3f3d56"/>
    <rect id="Rectangle_29-2" data-name="Rectangle 29" width="0.534" height="50.214" transform="translate(390.338 98.554) rotate(-34.838)" fill="#3f3d56"/>
    <rect id="Rectangle_30-2" data-name="Rectangle 30" width="35.412" height="0.33" transform="translate(355.826 114.107) rotate(-42.545)" fill="#3f3d56"/>
    <rect id="Rectangle_31-2" data-name="Rectangle 31" width="36.373" height="0.33" transform="translate(356.822 114.439) rotate(-41.439)" fill="#3f3d56"/>
    <rect id="Rectangle_32-2" data-name="Rectangle 32" width="36.85" height="0.33" transform="matrix(0.768, -0.64, 0.64, 0.768, 357.489, 114.442)" fill="#3f3d56"/>
  </g>
  <g id="Group_5" data-name="Group 5" transform="translate(842 295.99)">
    <path id="Path_122" data-name="Path 122" d="M214,487.31l-.37,19.95-2.96,161.71-25.34,59.34-87.33,1V496.5l91.14-7.22Z" transform="translate(-225 4)" fill="#5f5d7e"/>
    <path id="Path_123" data-name="Path 123" d="M214,487.31l-.37,19.95-2.96,161.71-25.34,59.34-87.33,1V496.5l91.14-7.22Z" transform="translate(-225 5)" opacity="0.1"/>
    <path id="Path_124" data-name="Path 124" d="M214,487.31l-.37,19.95-2.96,161.71-25.34,59.34L192,507.64l-.02-.14-2.84-18.22Z" transform="translate(-225 5)" fill="#5f5d7e"/>
    <path id="Path_125" data-name="Path 125" d="M189.14,489.28,214,487.31l-.37,19.95-21.65.24L98,508.55V496.5Z" opacity="0.1"/>
    <path id="Path_126" data-name="Path 126" d="M999,497.192V740.644H978.67l-81.34-62.4V490.324L970,483.14l4.46,2.156,4.21,2.04Z" fill="#5f5d7e"/>
    <rect id="Rectangle_33" data-name="Rectangle 33" width="20.33" height="255.78" transform="translate(978.67 485.19)" opacity="0.1"/>
    <path id="Path_127" data-name="Path 127" d="M999,485.19V498.5l-20.33.23-81.34.9v-9.66L970,483.14l4.46,2.05,4.21,1.94v-1.94Z" opacity="0.1"/>
    <path id="Path_128" data-name="Path 128" d="M1134.8,477.64V496.5L0,507.64v-24l106.778-19,929.194-6Z" transform="translate(-135.798)" fill="#5f5d7e"/>
    <path id="Path_129" data-name="Path 129" d="M1134.8,477.64V496.5L0,507.64v-24Z" transform="translate(-135.798)" opacity="0.1"/>
    <g id="Group_21" data-name="Group 21" transform="translate(0 139.405)">
      <rect id="Rectangle_34" data-name="Rectangle 34" width="170.375" height="132.285" rx="22.82" transform="translate(156.5 194.97)" fill="#474157"/>
      <rect id="Rectangle_35" data-name="Rectangle 35" width="143.207" height="107.911" transform="translate(170.211 206.904)" fill="#ededf4"/>
      <circle id="Ellipse_37" data-name="Ellipse 37" cx="2.347" cy="2.347" r="2.347" transform="translate(162.275 258.51)" fill="#e6e8ec"/>
      <circle id="Ellipse_38" data-name="Ellipse 38" cx="3.871" cy="3.871" r="3.871" transform="translate(315.891 257.239)" fill="#e6e8ec"/>
    </g>
    <path id="Path_158" data-name="Path 158" d="M799.69,332.48l-3.72.79a25.076,25.076,0,0,1,3.14-.93Z" transform="translate(-100.5 -51.37)" opacity="0.1"/>
    <path id="Path_160" data-name="Path 160" d="M868,520.72a3.4,3.4,0,0,1-.64-.09A1.33,1.33,0,0,1,868,520.72Z" transform="translate(-100.5 -51.37)" opacity="0.1"/>
    <g id="Group_20" data-name="Group 20" transform="translate(-76)">
      <rect id="Rectangle_38" data-name="Rectangle 38" width="43.81" height="11.52" transform="translate(68.3 458.44)" fill="#474157"/>
      <rect id="Rectangle_43" data-name="Rectangle 43" width="43.81" height="4.21" transform="translate(71.18 458.44)" opacity="0.1"/>
      <g id="Group_19" data-name="Group 19" transform="translate(-81)">
        <rect id="Rectangle_40" data-name="Rectangle 40" width="43.81" height="11.52" transform="translate(149.88 458.44)" opacity="0.1"/>
        <g id="Group_18" data-name="Group 18">
          <ellipse id="Ellipse_41" data-name="Ellipse 41" cx="45.04" cy="2.89" rx="45.04" ry="2.89" transform="translate(125.2 467.82)" opacity="0.1"/>
          <path id="Path_171" data-name="Path 171" d="M308.54,410.62a17.179,17.179,0,0,0-2.28,4.29c-.14.38-.28.8-.42,1.21a3.69,3.69,0,0,0-.79-.27,11.34,11.34,0,0,0-3.57-.31c0-.46.06-1,.07-1.46.15-5.27-.47-12.62-5.5-9.51-4.82,3-1.38,8,1.73,11.21l.8.78c-2.84,2-3.38,6.73-3.85,11.64s-4.64,10.29-7.41,13.34c-.28.31-.53.59-.78.85a10.11,10.11,0,0,0-8.05-2.07c-.11-.43-.24-.88-.37-1.36-2.24-8.08-6.89-22.09-12.82-25.16l.78-1c2.52-3.3,5.36-8.19,1.17-9.45s-4.57,4.25-4.34,8.37c0,.52.08,1,.12,1.46a6.17,6.17,0,0,0-4.38,2.14l-.65-.76c-3.4-4-9.63-10.37-11.52-5.56-1.76,4.48,3.73,10.29,7.59,13.66l.24.21C251.72,433.4,263,442,269.12,445.72l.79.48c-8.4,9.9-13.59,28.45-13.59,28.45l23.52,4.2s15.6-13.45,13.6-26.09h.16c15.59-3.12,19.13-19.74,16.7-29.61l.28-.11a17.74,17.74,0,0,0,7.22-5.46C322.16,411.51,313,404.67,308.54,410.62Z" transform="translate(-100.5 -51.37)" fill="#6c63ff"/>
          <path id="Path_172" data-name="Path 172" d="M308.54,410.62a17.179,17.179,0,0,0-2.28,4.29c-.14.38-.28.8-.42,1.21a3.69,3.69,0,0,0-.79-.27,11.34,11.34,0,0,0-3.57-.31c0-.46.06-1,.07-1.46.15-5.27-.47-12.62-5.5-9.51-4.82,3-1.38,8,1.73,11.21l.8.78c-2.84,2-3.38,6.73-3.85,11.64s-4.64,10.29-7.41,13.34c-.28.31-.53.59-.78.85a10.11,10.11,0,0,0-8.05-2.07c-.11-.43-.24-.88-.37-1.36-2.24-8.08-6.89-22.09-12.82-25.16l.78-1c2.52-3.3,5.36-8.19,1.17-9.45s-4.57,4.25-4.34,8.37c0,.52.08,1,.12,1.46a6.17,6.17,0,0,0-4.38,2.14l-.65-.76c-3.4-4-9.63-10.37-11.52-5.56-1.76,4.48,3.73,10.29,7.59,13.66l.24.21C251.72,433.4,263,442,269.12,445.72l.79.48c-8.4,9.9-13.59,28.45-13.59,28.45l23.52,4.2s15.6-13.45,13.6-26.09h.16c15.59-3.12,19.13-19.74,16.7-29.61l.28-.11a17.74,17.74,0,0,0,7.22-5.46C322.16,411.51,313,404.67,308.54,410.62Z" transform="translate(-100.5 -51.37)" opacity="0.1"/>
          <path id="Path_173" data-name="Path 173" d="M261.72,417.4,259,425.45s-1.53-1.08-3.46-2.78c-3.86-3.37-9.35-9.18-7.59-13.66,1.89-4.81,8.12,1.54,11.52,5.56C260.81,416.16,261.72,417.4,261.72,417.4Z" transform="translate(-100.5 -51.37)" fill="#6c63ff"/>
          <path id="Path_174" data-name="Path 174" d="M267.52,412.81a38.9,38.9,0,0,1-2.68,3.15,42.219,42.219,0,0,1-.49-4.23c-.23-4.12.21-9.59,4.34-8.37S270,409.51,267.52,412.81Z" transform="translate(-100.5 -51.37)" fill="#6c63ff"/>
          <path id="Path_175" data-name="Path 175" d="M303,414.08c-.08,2.65-.34,4.76-.34,4.76a34,34,0,0,1-3.43-3.06c-3.11-3.23-6.55-8.21-1.73-11.21C302.52,401.46,303.14,408.81,303,414.08Z" transform="translate(-100.5 -51.37)" fill="#6c63ff"/>
          <path id="Path_176" data-name="Path 176" d="M319.24,417.55A17.74,17.74,0,0,1,312,423a20.18,20.18,0,0,1-2.42.87l-3.24-4.55a33.051,33.051,0,0,1,1.34-4.42,17.181,17.181,0,0,1,2.28-4.29C314.46,404.67,323.6,411.51,319.24,417.55Z" transform="translate(-100.5 -51.37)" fill="#6c63ff"/>
          <path id="Path_177" data-name="Path 177" d="M259.44,414.57c1.37,1.59,2.28,2.83,2.28,2.83L259,425.45s-1.53-1.08-3.46-2.78a15.75,15.75,0,0,1,3.1-7.07A9.385,9.385,0,0,1,259.44,414.57Z" transform="translate(-100.5 -51.37)" opacity="0.1"/>
          <path id="Path_178" data-name="Path 178" d="M267.52,412.81a38.9,38.9,0,0,1-2.68,3.15,42.219,42.219,0,0,1-.49-4.23,5.46,5.46,0,0,1,3.17,1.08Z" transform="translate(-100.5 -51.37)" opacity="0.1"/>
          <path id="Path_179" data-name="Path 179" d="M281,444.77l-6.84,3s-1.49-.72-3.64-2.06c-7.19-4.43-21.64-15.56-11.95-28.68s17.77,10.42,20.95,21.92C280.53,442.4,281,444.77,281,444.77Z" transform="translate(-100.5 -51.37)" fill="#6c63ff"/>
          <path id="Path_180" data-name="Path 180" d="M299.22,415.78a5.57,5.57,0,0,1,3.77-1.7c-.08,2.65-.34,4.76-.34,4.76a34,34,0,0,1-3.43-3.06Z" transform="translate(-100.5 -51.37)" opacity="0.1"/>
          <path id="Path_181" data-name="Path 181" d="M312,423a20.185,20.185,0,0,1-2.42.87l-3.24-4.55a33.051,33.051,0,0,1,1.34-4.42C309.79,416.14,311.33,419.17,312,423Z" transform="translate(-100.5 -51.37)" opacity="0.1"/>
          <path id="Path_182" data-name="Path 182" d="M295,452.73l-1.15.2c-22.93,3.49-7.56-8.88-7.56-8.88s1-.95,2.43-2.51c2.77-3.05,6.93-8.4,7.41-13.34.72-7.43,1.55-14.4,10.32-12.35C315.1,417.86,316.75,448.38,295,452.73Z" transform="translate(-100.5 -51.37)" fill="#6c63ff"/>
          <rect id="Rectangle_39" data-name="Rectangle 39" width="57.24" height="40.2" transform="translate(143.34 421)" fill="#474157"/>
          <rect id="Rectangle_41" data-name="Rectangle 41" width="57.24" height="40.2" transform="translate(143.16 421.01)" opacity="0.1"/>
          <rect id="Rectangle_42" data-name="Rectangle 42" width="43.81" height="11.52" transform="translate(153.18 458.44)" fill="#474157"/>
          <path id="Path_183" data-name="Path 183" d="M279.56,439c1,3.44,1.48,5.81,1.48,5.81l-6.84,3s-1.49-.72-3.64-2.06C273.24,442.32,276.26,439.75,279.56,439Z" transform="translate(-100.5 -51.37)" opacity="0.1"/>
          <path id="Path_184" data-name="Path 184" d="M295,452.73l-1.15.2c-22.93,3.49-7.56-8.88-7.56-8.88s1-.95,2.43-2.51C293,445,294.81,448.83,295,452.73Z" transform="translate(-100.5 -51.37)" opacity="0.1"/>
          <path id="Path_185" data-name="Path 185" d="M257.76,474.65s12.84-46,30.85-31.8-7.33,36-7.33,36Z" transform="translate(-100.5 -51.37)" fill="#6c63ff"/>
          <circle id="Ellipse_42" data-name="Ellipse 42" cx="1.44" cy="1.44" r="1.44" transform="translate(162.3 371.43)" opacity="0.1"/>
          <circle id="Ellipse_43" data-name="Ellipse 43" cx="1.44" cy="1.44" r="1.44" transform="translate(162.18 378.16)" opacity="0.1"/>
          <circle id="Ellipse_44" data-name="Ellipse 44" cx="1.44" cy="1.44" r="1.44" transform="translate(203.95 372.75)" opacity="0.1"/>
          <circle id="Ellipse_45" data-name="Ellipse 45" cx="1.44" cy="1.44" r="1.44" transform="translate(170.34 407.2)" opacity="0.1"/>
          <circle id="Ellipse_46" data-name="Ellipse 46" cx="1.44" cy="1.44" r="1.44" transform="translate(200.95 383.92)" opacity="0.1"/>
          <circle id="Ellipse_47" data-name="Ellipse 47" cx="1.44" cy="1.44" r="1.44" transform="translate(186.07 398.8)" opacity="0.1"/>
          <circle id="Ellipse_48" data-name="Ellipse 48" cx="1.44" cy="1.44" r="1.44" transform="translate(167.22 374.31)" opacity="0.1"/>
          <circle id="Ellipse_49" data-name="Ellipse 49" cx="1.44" cy="1.44" r="1.44" transform="translate(199.99 377.08)" opacity="0.1"/>
          <circle id="Ellipse_50" data-name="Ellipse 50" cx="1.44" cy="1.44" r="1.44" transform="translate(195.07 388.24)" opacity="0.1"/>
          <circle id="Ellipse_51" data-name="Ellipse 51" cx="1.44" cy="1.44" r="1.44" transform="translate(179.94 406.12)" opacity="0.1"/>
          <circle id="Ellipse_52" data-name="Ellipse 52" cx="1.44" cy="1.44" r="1.44" transform="translate(176.82 399.04)" opacity="0.1"/>
          <circle id="Ellipse_53" data-name="Ellipse 53" cx="1.44" cy="1.44" r="1.44" transform="translate(169.38 383.08)" opacity="0.1"/>
          <rect id="Rectangle_44" data-name="Rectangle 44" width="57.24" height="40.2" transform="translate(146.22 421)" fill="#474157"/>
          <circle id="Ellipse_54" data-name="Ellipse 54" cx="1.44" cy="1.44" r="1.44" transform="translate(181.86 412.6)" opacity="0.1"/>
          <circle id="Ellipse_55" data-name="Ellipse 55" cx="1.44" cy="1.44" r="1.44" transform="translate(173.22 414.4)" opacity="0.1"/>
        </g>
      </g>
    </g>
  </g>
  <g id="Group_17" data-name="Group 17" transform="translate(1075 501.216)">
    <g id="Group_6" data-name="Group 6" transform="translate(215.72)" opacity="0.7">
      <path id="Path_186" data-name="Path 186" d="M630.7,199H339.383A9.417,9.417,0,0,0,330,208.446v200.5a9.417,9.417,0,0,0,9.383,9.446H439.575V453h-4.568a4.775,4.775,0,0,0-4.758,4.792v6.944h9.325v4.108H530.5v-4.108h9.325v-6.944A4.775,4.775,0,0,0,535.073,453h-4.3v-.3h-.293v-34.31H630.7a9.417,9.417,0,0,0,9.383-9.446v-200.5A9.417,9.417,0,0,0,630.7,199Z" transform="translate(-330 -199)" fill="url(#linear-gradient-67)"/>
    </g>
    <rect id="Rectangle_45" data-name="Rectangle 45" width="89.745" height="52.926" transform="translate(326.175 213.432)" fill="#bdbdbd"/>
    <g id="Group_7" data-name="Group 7" transform="translate(325.887 211.13)" opacity="0.1">
      <path id="Path_187" data-name="Path 187" d="M523.554,573.479h86.391c1.041-4.528,1.875-7.479,1.875-7.479H521.5S522.426,568.94,523.554,573.479Z" transform="translate(-521.5 -566)"/>
    </g>
    <path id="Path_188" data-name="Path 188" d="M228.982,3H516.511a9.262,9.262,0,0,1,9.262,9.262V189.393H219.72V12.262A9.262,9.262,0,0,1,228.982,3Z" transform="translate(-1.699 -1.274)" fill="#535461"/>
    <path id="Path_189" data-name="Path 189" d="M630.791,554.764H343.262A9.262,9.262,0,0,1,334,545.5V526H640.053v19.5A9.262,9.262,0,0,1,630.791,554.764Z" transform="translate(-115.979 -337.881)" fill="#bdbdbd"/>
    <circle id="Ellipse_56" data-name="Ellipse 56" cx="5.178" cy="5.178" r="5.178" transform="translate(365.87 197.324)" fill="#535461"/>
    <path id="Path_190" data-name="Path 190" d="M396.42,436h98.754a4.7,4.7,0,0,1,4.7,4.7v6.806H391.72V440.7A4.7,4.7,0,0,1,396.42,436Z" transform="translate(-74.749 -185.175)" fill="#bdbdbd"/>
    <g id="Group_8" data-name="Group 8" transform="translate(276.125 40.914)" opacity="0.5">
      <rect id="Rectangle_46" data-name="Rectangle 46" width="189.845" height="108.016" rx="4.5" fill="url(#linear-gradient-67)"/>
    </g>
    <rect id="Rectangle_47" data-name="Rectangle 47" width="184.978" height="105.83" rx="4.5" transform="translate(278.559 41.708)" fill="#fff"/>
    <line id="Line_2" data-name="Line 2" y1="12.656" transform="translate(371.048 11.506)" stroke="#6c63ff" stroke-miterlimit="10" stroke-width="2"/>
    <line id="Line_3" data-name="Line 3" y1="16.609" transform="translate(371.048 28.839)" stroke="#6c63ff" stroke-miterlimit="10" stroke-width="2"/>
    <circle id="Ellipse_57" data-name="Ellipse 57" cx="2.301" cy="2.301" r="2.301" transform="translate(368.746 43.147)" fill="#6c63ff"/>
    <circle id="Ellipse_58" data-name="Ellipse 58" cx="2.301" cy="2.301" r="2.301" transform="translate(368.746 24.162)" fill="none" stroke="#fff" stroke-miterlimit="10" stroke-width="1"/>
    <line id="Line_4" data-name="Line 4" y1="12.656" transform="translate(371.048 11.506)" stroke="#6989e5" stroke-miterlimit="10" stroke-width="2"/>
    <line id="Line_5" data-name="Line 5" y1="16.609" transform="translate(371.048 28.839)" stroke="#6989e5" stroke-miterlimit="10" stroke-width="2"/>
    <circle id="Ellipse_59" data-name="Ellipse 59" cx="2.301" cy="2.301" r="2.301" transform="translate(368.746 43.147)" fill="#6989e5"/>
    <circle id="Ellipse_60" data-name="Ellipse 60" cx="2.301" cy="2.301" r="2.301" transform="translate(368.746 24.162)" fill="none" stroke="#fff" stroke-miterlimit="10" stroke-width="1"/>
    <line id="Line_6" data-name="Line 6" y2="17.834" transform="translate(371.048 160.505)" stroke="#6989e5" stroke-miterlimit="10" stroke-width="2"/>
    <line id="Line_7" data-name="Line 7" y2="16.609" transform="translate(371.048 144.397)" stroke="#6989e5" stroke-miterlimit="10" stroke-width="2"/>
    <circle id="Ellipse_61" data-name="Ellipse 61" cx="2.301" cy="2.301" r="2.301" transform="translate(368.746 142.096)" fill="#6989e5"/>
    <line id="Line_8" data-name="Line 8" x1="18.122" transform="translate(249.374 96.936)" stroke="#6989e5" stroke-miterlimit="10" stroke-width="2"/>
    <line id="Line_9" data-name="Line 9" x1="16.609" transform="translate(266.708 96.936)" stroke="#6989e5" stroke-miterlimit="10" stroke-width="2"/>
    <circle id="Ellipse_62" data-name="Ellipse 62" cx="2.301" cy="2.301" r="2.301" transform="translate(281.015 94.635)" fill="#6989e5"/>
    <g id="Group_12" data-name="Group 12" transform="translate(326.463 250.538)" opacity="0.1">
      <rect id="Rectangle_57" data-name="Rectangle 57" width="89.745" height="1.726" transform="translate(0)"/>
    </g>
    <line id="Line_10" data-name="Line 10" x2="3.452" transform="translate(488.694 96.936)" stroke="#6989e5" stroke-miterlimit="10" stroke-width="2"/>
    <line id="Line_11" data-name="Line 11" x2="25.819" transform="translate(458.204 96.936)" stroke="#6989e5" stroke-miterlimit="10" stroke-width="2"/>
    <circle id="Ellipse_63" data-name="Ellipse 63" cx="2.301" cy="2.301" r="2.301" transform="translate(455.902 94.635)" fill="#6989e5"/>
    <circle id="Ellipse_64" data-name="Ellipse 64" cx="2.301" cy="2.301" r="2.301" transform="translate(484.092 94.635)" fill="none" stroke="#fff" stroke-miterlimit="10" stroke-width="1"/>
    <line id="Line_12" data-name="Line 12" x2="165" transform="translate(288.5 64.284)" fill="none" stroke="#707070" stroke-width="1"/>
    <line id="Line_13" data-name="Line 13" y1="14" transform="translate(412.5 45.284)" fill="none" stroke="#707070" stroke-width="1"/>
    <rect id="Rectangle_67" data-name="Rectangle 67" width="39" height="7" rx="3.5" transform="translate(297 80.784)" fill="#cfcfcf" opacity="0.67"/>
    <rect id="Rectangle_68" data-name="Rectangle 68" width="34" height="7" rx="3.5" transform="translate(297 91.784)" fill="#cfcfcf" opacity="0.64"/>
    <rect id="Rectangle_69" data-name="Rectangle 69" width="37" height="7" rx="3.5" transform="translate(297 101.784)" fill="#3561dc" opacity="0.74"/>
  </g>
  <g id="Group_22" data-name="Group 22" transform="translate(339 539.392)">
    <ellipse id="Ellipse_65" data-name="Ellipse 65" cx="23.54" cy="1.39" rx="23.54" ry="1.39" transform="translate(562.2 226.418)" opacity="0.1"/>
    <g id="Group_23" data-name="Group 23" transform="translate(567.618 160.547)">
      <g id="Group_15" data-name="Group 15" transform="translate(0)" opacity="0.7">
        <path id="Path_205" data-name="Path 205" d="M969.639,544.823l.039-.058q.121-.187.238-.39l.043-.074q.113-.191.214-.39l.035-.066c.078-.152.152-.3.218-.464h0a9.249,9.249,0,0,0,.366-.978l.039-.129c.035-.121.07-.242.1-.362l.039-.172q.039-.164.07-.331a1.061,1.061,0,0,1,.035-.187c.012-.062.035-.218.051-.331a.857.857,0,0,1,.023-.191,2.055,2.055,0,0,0,.031-.359v-32.89h-5.4V492.443h-6.626v15.008H954.59V486h-6.626v21.446h-2.491V482.819h-6.626v24.632H933v32.2a9.633,9.633,0,0,0,9.745,9.511h18.709a9.819,9.819,0,0,0,7.889-3.921h0Q969.487,545.029,969.639,544.823Z" transform="translate(-933 -481.55)" fill="url(#linear-gradient-69)"/>
      </g>
      <g id="Group_22-2" data-name="Group 22" transform="translate(1.169 2.124)">
        <rect id="Rectangle_61" data-name="Rectangle 61" width="6.236" height="38.978" transform="translate(5.457 12.863)" fill="#535461"/>
        <rect id="Rectangle_62" data-name="Rectangle 62" width="6.236" height="12.863" transform="translate(5.457)" fill="#3ad29f"/>
        <rect id="Rectangle_63" data-name="Rectangle 63" width="6.236" height="38.978" transform="translate(14.032 15.981)" fill="#535461"/>
        <rect id="Rectangle_64" data-name="Rectangle 64" width="6.236" height="12.863" transform="translate(14.032 3.118)" fill="#4d8af0"/>
        <rect id="Rectangle_65" data-name="Rectangle 65" width="6.236" height="38.978" transform="translate(24.556 22.607)" fill="#535461"/>
        <rect id="Rectangle_66" data-name="Rectangle 66" width="6.236" height="12.863" transform="translate(24.556 9.744)" fill="#f55f44"/>
        <path id="Path_206" data-name="Path 206" d="M821.72,352h35.86v30.987a9.16,9.16,0,0,1-9.16,9.16H830.88a9.16,9.16,0,0,1-9.16-9.16Z" transform="translate(-821.72 -327.054)" fill="#db8729"/>
      </g>
    </g>
    <g id="Group_16" data-name="Group 16" transform="translate(568.788 187.618)" opacity="0.1">
      <path id="Path_207" data-name="Path 207" d="M936,551v1.559h34.3v30.987a9.117,9.117,0,0,1-1.949,5.648,9.14,9.14,0,0,0,3.508-7.207V551Z" transform="translate(-936 -551)"/>
    </g>
  </g>
  <g id="Rectangle_70" data-name="Rectangle 70" transform="translate(1493 552)" fill="#fff" stroke="#979797" stroke-width="1">
    <rect width="19" height="5" stroke="none"/>
    <rect x="0.5" y="0.5" width="18" height="4" fill="none"/>
  </g>
  <g id="Rectangle_71" data-name="Rectangle 71" transform="translate(1515 552)" fill="#fff" stroke="#979797" stroke-width="1">
    <rect width="19" height="5" stroke="none"/>
    <rect x="0.5" y="0.5" width="18" height="4" fill="none"/>
  </g>
  <line id="Line_14" data-name="Line 14" x1="14" transform="translate(1467.5 557.5)" fill="none" stroke="#8f8f8f" stroke-width="1"/>
  <line id="Line_15" data-name="Line 15" x1="15" transform="translate(1448.5 557.5)" fill="none" stroke="#979797" stroke-width="1"/>
  <line id="Line_16" data-name="Line 16" x1="15" transform="translate(1429.5 557.5)" fill="none" stroke="#979797" stroke-width="1"/>
  <line id="Line_17" data-name="Line 17" x1="15" transform="translate(1410.5 557.5)" fill="none" stroke="#979797" stroke-width="1"/>
  <g id="Group_24" data-name="Group 24" transform="matrix(0.966, -0.259, 0.259, 0.966, 252.188, 949.084)">
    <path id="Path_208" data-name="Path 208" d="M394.01,263.213a1.051,1.051,0,0,1,.519.137L424.508,280.3a1.058,1.058,0,0,1,.4,1.44L401.3,323.5a1.056,1.056,0,0,1-1.44.4l-29.979-16.949a1.058,1.058,0,0,1-.4-1.44l23.612-41.764a1.05,1.05,0,0,1,.637-.5A1.062,1.062,0,0,1,394.01,263.213Z" transform="translate(-369.34 -263.213)" fill="#e6e6e6"/>
    <rect id="Rectangle_72" data-name="Rectangle 72" width="0.245" height="36.396" transform="matrix(-0.492, 0.871, -0.871, -0.492, 32.912, 58.441)" fill="#fff"/>
    <rect id="Rectangle_73" data-name="Rectangle 73" width="0.245" height="36.396" transform="matrix(-0.492, 0.871, -0.871, -0.492, 35.08, 54.606)" fill="#fff"/>
    <rect id="Rectangle_74" data-name="Rectangle 74" width="0.245" height="36.396" transform="matrix(-0.492, 0.871, -0.871, -0.492, 37.249, 50.77)" fill="#fff"/>
    <rect id="Rectangle_75" data-name="Rectangle 75" width="0.245" height="36.396" transform="matrix(-0.492, 0.871, -0.871, -0.492, 39.417, 46.935)" fill="#fff"/>
    <rect id="Rectangle_76" data-name="Rectangle 76" width="0.245" height="36.396" transform="matrix(-0.492, 0.871, -0.871, -0.492, 41.585, 43.099)" fill="#fff"/>
    <rect id="Rectangle_77" data-name="Rectangle 77" width="0.245" height="36.396" transform="matrix(-0.492, 0.871, -0.871, -0.492, 43.754, 39.264)" fill="#fff"/>
    <rect id="Rectangle_78" data-name="Rectangle 78" width="0.245" height="36.396" transform="matrix(-0.492, 0.871, -0.871, -0.492, 45.922, 35.428)" fill="#fff"/>
    <rect id="Rectangle_79" data-name="Rectangle 79" width="0.245" height="36.396" transform="matrix(-0.492, 0.871, -0.871, -0.492, 48.091, 31.593)" fill="#fff"/>
    <rect id="Rectangle_80" data-name="Rectangle 80" width="0.245" height="36.396" transform="matrix(-0.492, 0.871, -0.871, -0.492, 50.259, 27.757)" fill="#fff"/>
    <rect id="Rectangle_81" data-name="Rectangle 81" width="0.245" height="36.396" transform="matrix(-0.492, 0.871, -0.871, -0.492, 52.428, 23.922)" fill="#fff"/>
    <rect id="Rectangle_82" data-name="Rectangle 82" width="0.245" height="36.396" transform="matrix(-0.492, 0.871, -0.871, -0.492, 54.596, 20.086)" fill="#fff"/>
    <path id="Path_209" data-name="Path 209" d="M376.01,222.213a1.051,1.051,0,0,1,.519.137L406.508,239.3a1.058,1.058,0,0,1,.4,1.44L383.3,282.5a1.056,1.056,0,0,1-1.44.4l-29.979-16.949a1.058,1.058,0,0,1-.4-1.44l23.612-41.764a1.05,1.05,0,0,1,.637-.5A1.062,1.062,0,0,1,376.01,222.213Z" transform="translate(-348.552 -215.861)" fill="#f2f2f2"/>
    <rect id="Rectangle_83" data-name="Rectangle 83" width="0.245" height="36.396" transform="matrix(-0.492, 0.871, -0.871, -0.492, 35.7, 64.794)" fill="#fff"/>
    <rect id="Rectangle_84" data-name="Rectangle 84" width="0.245" height="36.396" transform="matrix(-0.492, 0.871, -0.871, -0.492, 37.869, 60.958)" fill="#fff"/>
    <rect id="Rectangle_85" data-name="Rectangle 85" width="0.245" height="36.396" transform="matrix(-0.492, 0.871, -0.871, -0.492, 40.037, 57.122)" fill="#fff"/>
    <rect id="Rectangle_86" data-name="Rectangle 86" width="0.245" height="36.396" transform="matrix(-0.492, 0.871, -0.871, -0.492, 42.206, 53.287)" fill="#fff"/>
    <rect id="Rectangle_87" data-name="Rectangle 87" width="0.245" height="36.396" transform="matrix(-0.492, 0.871, -0.871, -0.492, 44.374, 49.452)" fill="#fff"/>
    <rect id="Rectangle_88" data-name="Rectangle 88" width="0.245" height="36.396" transform="matrix(-0.492, 0.871, -0.871, -0.492, 46.543, 45.616)" fill="#fff"/>
    <rect id="Rectangle_89" data-name="Rectangle 89" width="0.245" height="36.396" transform="matrix(-0.492, 0.871, -0.871, -0.492, 48.711, 41.781)" fill="#fff"/>
    <rect id="Rectangle_90" data-name="Rectangle 90" width="0.245" height="36.396" transform="matrix(-0.492, 0.871, -0.871, -0.492, 50.88, 37.945)" fill="#fff"/>
    <rect id="Rectangle_91" data-name="Rectangle 91" width="0.245" height="36.396" transform="matrix(-0.492, 0.871, -0.871, -0.492, 53.048, 34.11)" fill="#fff"/>
    <rect id="Rectangle_92" data-name="Rectangle 92" width="0.245" height="36.396" transform="matrix(-0.492, 0.871, -0.871, -0.492, 55.216, 30.274)" fill="#fff"/>
    <rect id="Rectangle_93" data-name="Rectangle 93" width="0.245" height="36.396" transform="matrix(-0.492, 0.871, -0.871, -0.492, 57.385, 26.439)" fill="#fff"/>
    <path id="Path_210" data-name="Path 210" d="M223.775,287.207h47.911V220.586H223.775a.649.649,0,0,0-.649.649v65.323a.649.649,0,0,0,.649.649Zm45.207-64.782a1.19,1.19,0,1,1-1.19,1.19,1.19,1.19,0,0,1,1.19-1.19Zm0,6.056a1.19,1.19,0,1,1-1.19,1.19,1.19,1.19,0,0,1,1.19-1.19Zm0,6.056a1.19,1.19,0,1,1-1.19,1.19,1.19,1.19,0,0,1,1.19-1.19Zm0,6.056a1.19,1.19,0,1,1-1.19,1.19,1.19,1.19,0,0,1,1.19-1.19Zm0,6.056a1.19,1.19,0,1,1-1.19,1.19,1.19,1.19,0,0,1,1.19-1.19Zm0,6.056a1.19,1.19,0,1,1-1.19,1.19,1.19,1.19,0,0,1,1.19-1.19Zm0,6.056a1.19,1.19,0,1,1-1.19,1.19,1.19,1.19,0,0,1,1.19-1.19Zm0,6.056a1.19,1.19,0,1,1-1.19,1.19,1.19,1.19,0,0,1,1.19-1.19Zm0,6.056a1.19,1.19,0,1,1-1.19,1.19,1.19,1.19,0,0,1,1.19-1.19Zm0,6.056a1.19,1.19,0,1,1-1.19,1.19,1.19,1.19,0,0,1,1.19-1.19Zm0,6.056a1.19,1.19,0,1,1-1.19,1.19A1.19,1.19,0,0,1,268.982,282.989Z" transform="translate(-193.329 -219.775)" fill="#3f3d56"/>
    <path id="Path_211" data-name="Path 211" d="M206.019,237.339c.321,0,3.136.015,3.136.541s-2.815.541-3.136.541V238.2a8.173,8.173,0,0,0,2.907-.324,13.195,13.195,0,0,0-5.812,0,3.611,3.611,0,0,0,1.35.264l-.019.215c-1.562-.135-1.562-.384-1.562-.478C202.883,237.355,205.7,237.339,206.019,237.339Z" transform="translate(-127.662 -173.585)" fill="#2f2e41"/>
    <path id="Path_212" data-name="Path 212" d="M206.019,275.731c.321,0,3.136.015,3.136.541s-2.815.541-3.136.541V276.6a8.172,8.172,0,0,0,2.907-.324,13.195,13.195,0,0,0-5.812,0,3.612,3.612,0,0,0,1.35.264l-.019.215c-1.562-.135-1.562-.384-1.562-.478C202.883,275.747,205.7,275.731,206.019,275.731Z" transform="translate(-127.662 -217.925)" fill="#2f2e41"/>
    <path id="Path_213" data-name="Path 213" d="M206.019,314.823c.321,0,3.136.015,3.136.541s-2.815.541-3.136.541v-.216a8.172,8.172,0,0,0,2.907-.324,13.2,13.2,0,0,0-5.812,0,3.611,3.611,0,0,0,1.35.264l-.019.215c-1.562-.135-1.562-.384-1.562-.478C202.883,314.838,205.7,314.823,206.019,314.823Z" transform="translate(-127.662 -263.073)" fill="#2f2e41"/>
    <path id="Path_214" data-name="Path 214" d="M206.019,353.913c.321,0,3.136.015,3.136.541s-2.815.541-3.136.541v-.216a8.172,8.172,0,0,0,2.907-.324,13.195,13.195,0,0,0-5.812,0,3.612,3.612,0,0,0,1.35.264l-.019.215c-1.562-.135-1.562-.384-1.562-.478C202.883,353.929,205.7,353.913,206.019,353.913Z" transform="translate(-127.662 -308.22)" fill="#2f2e41"/>
    <path id="Path_215" data-name="Path 215" d="M206.019,393c.321,0,3.136.015,3.136.541s-2.815.541-3.136.541v-.216a8.173,8.173,0,0,0,2.907-.324,13.2,13.2,0,0,0-5.812,0,3.611,3.611,0,0,0,1.35.264l-.019.215c-1.562-.135-1.562-.384-1.562-.478C202.883,393.02,205.7,393,206.019,393Z" transform="translate(-127.662 -353.368)" fill="#2f2e41"/>
    <path id="Path_216" data-name="Path 216" d="M206.019,432.1c.321,0,3.136.015,3.136.541s-2.815.541-3.136.541v-.216a8.172,8.172,0,0,0,2.907-.324,13.2,13.2,0,0,0-5.812,0,3.61,3.61,0,0,0,1.35.264l-.019.215c-1.562-.135-1.562-.384-1.562-.478C202.883,432.111,205.7,432.1,206.019,432.1Z" transform="translate(-127.662 -398.515)" fill="#2f2e41"/>
    <path id="Path_217" data-name="Path 217" d="M206.019,471.186c.321,0,3.136.015,3.136.541s-2.815.541-3.136.541v-.216a8.172,8.172,0,0,0,2.907-.324,13.194,13.194,0,0,0-5.812,0,3.61,3.61,0,0,0,1.35.264l-.019.215c-1.562-.135-1.562-.384-1.562-.478C202.883,471.2,205.7,471.186,206.019,471.186Z" transform="translate(-127.662 -443.662)" fill="#2f2e41"/>
    <path id="Path_218" data-name="Path 218" d="M206.019,510.277c.321,0,3.136.015,3.136.541s-2.815.541-3.136.541v-.216a8.172,8.172,0,0,0,2.907-.324,13.195,13.195,0,0,0-5.812,0,3.612,3.612,0,0,0,1.35.264l-.019.215c-1.562-.135-1.562-.384-1.562-.478C202.883,510.293,205.7,510.277,206.019,510.277Z" transform="translate(-127.662 -488.81)" fill="#2f2e41"/>
    <path id="Path_219" data-name="Path 219" d="M206.019,549.369c.321,0,3.136.015,3.136.541s-2.815.541-3.136.541v-.216a8.173,8.173,0,0,0,2.907-.324,13.195,13.195,0,0,0-5.812,0,3.609,3.609,0,0,0,1.35.264l-.019.215c-1.562-.135-1.562-.384-1.562-.478C202.883,549.384,205.7,549.369,206.019,549.369Z" transform="translate(-127.662 -533.957)" fill="#2f2e41"/>
    <path id="Path_220" data-name="Path 220" d="M206.019,588.46c.321,0,3.136.015,3.136.541s-2.815.541-3.136.541v-.216a8.17,8.17,0,0,0,2.907-.324,13.194,13.194,0,0,0-5.812,0,3.612,3.612,0,0,0,1.35.264l-.019.215c-1.562-.135-1.562-.384-1.562-.478C202.883,588.475,205.7,588.46,206.019,588.46Z" transform="translate(-127.662 -579.105)" fill="#2f2e41"/>
    <path id="Path_221" data-name="Path 221" d="M206.019,627.551c.321,0,3.136.015,3.136.541s-2.815.541-3.136.541v-.216a8.171,8.171,0,0,0,2.907-.325,13.2,13.2,0,0,0-5.812,0,3.612,3.612,0,0,0,1.35.264l-.019.215c-1.562-.135-1.562-.384-1.562-.478C202.883,627.566,205.7,627.551,206.019,627.551Z" transform="translate(-127.662 -624.252)" fill="#2f2e41"/>
    <path id="Path_222" data-name="Path 222" d="M311.784,315.87h23.793a.7.7,0,0,1,.7.7v9.3a.7.7,0,0,1-.7.7H311.784a.7.7,0,0,1-.7-.7v-9.3A.7.7,0,0,1,311.784,315.87Z" transform="translate(-271.55 -273.908)" fill="#fff"/>
    <path id="Path_223" data-name="Path 223" d="M369.909,329.481h6.056a.541.541,0,0,1,0,1.082h-6.056a.541.541,0,1,1,0-1.082Z" transform="translate(-320.806 -280.003)" fill="#212121"/>
    <path id="Path_224" data-name="Path 224" d="M348.268,346.933H361.03a.541.541,0,0,1,0,1.082H348.268a.541.541,0,1,1,0-1.082Z" transform="translate(-302.519 -300.159)" fill="#212121"/>
    <path id="Path_225" data-name="Path 225" d="M348.268,364.384H361.03a.541.541,0,0,1,0,1.082H348.268a.541.541,0,1,1,0-1.082Z" transform="translate(-302.519 -320.313)" fill="#212121"/>
  </g>
</svg>
