<svg id="profileBG" xmlns="http://www.w3.org/2000/svg" xmlns:xlink="http://www.w3.org/1999/xlink" width="1920" height="1139.337" viewBox="0 0 1920 1139.337">
  <defs>
    <linearGradient id="linear-gradient" x1="0.5" x2="0.513" y2="1.589" gradientUnits="objectBoundingBox">
      <stop offset="0" stop-color="#fff"/>
      <stop offset="1" stop-color="#b8b8b8" stop-opacity="0"/>
    </linearGradient>
  </defs>
  <rect id="Rectangle_7" data-name="Rectangle 7" width="1920" height="1080" fill="url(#linear-gradient)"/>
  <g id="Group_55" data-name="Group 55">
    <rect id="Rectangle_178" data-name="Rectangle 178" width="477" height="837" transform="translate(1443 243)" fill="#484848"/>
    <g id="Group_53" data-name="Group 53">
      <path id="Path_267" data-name="Path 267" d="M8401.3,890.079l24.745,24.745,24.745-24.745,24.745,24.745,24.745-24.745,24.745,24.745" transform="translate(2318.117 -8155.213) rotate(90)" fill="none" stroke="#707070" stroke-width="3"/>
      <path id="Path_268" data-name="Path 268" d="M8327.069,914.824l24.745-24.745,24.745,24.745,24.745-24.745,24.745,24.745,24.745-24.745,24.745,24.745,24.745-24.745,24.745,24.745" transform="translate(2318.117 -7959.213) rotate(90)" fill="none" stroke="#707070" stroke-width="3"/>
      <path id="Path_269" data-name="Path 269" d="M8327.069,914.824l24.745-24.745,24.745,24.745,24.745-24.745,24.745,24.745,24.745-24.745,24.745,24.745,24.745-24.745,24.745,24.745" transform="translate(2318.117 -7763.213) rotate(90)" fill="none" stroke="#707070" stroke-width="3"/>
      <path id="Path_270" data-name="Path 270" d="M8327.069,914.824l24.745-24.745,24.745,24.745,24.745-24.745,24.745,24.745,24.745-24.745,24.745,24.745,24.745-24.745,24.745,24.745" transform="translate(2318.117 -7567.213) rotate(90)" fill="none" stroke="#707070" stroke-width="3"/>
    </g>
    <g id="Group_54" data-name="Group 54" transform="translate(3308.331 1138.674) rotate(180)">
      <path id="Path_267-2" data-name="Path 267" d="M8327.069,914.824l24.745-24.745,24.745,24.745,24.745-24.745,24.745,24.745,24.745-24.745,24.745,24.745,24.745-24.745,24.745,24.745" transform="translate(2318.117 -8155.213) rotate(90)" fill="none" stroke="#6e6e6e" stroke-width="3"/>
      <path id="Path_268-2" data-name="Path 268" d="M8327.069,914.824l24.745-24.745,24.745,24.745,24.745-24.745,24.745,24.745,24.745-24.745,24.745,24.745,24.745-24.745,24.745,24.745" transform="translate(2318.117 -7959.213) rotate(90)" fill="none" stroke="#6e6e6e" stroke-width="3"/>
      <path id="Path_269-2" data-name="Path 269" d="M8327.069,914.824l24.745-24.745,24.745,24.745,24.745-24.745,24.745,24.745,24.745-24.745,24.745,24.745,24.745-24.745,24.745,24.745" transform="translate(2318.117 -7763.213) rotate(90)" fill="none" stroke="#6e6e6e" stroke-width="3"/>
      <path id="Path_270-2" data-name="Path 270" d="M8327.069,914.824l24.745-24.745,24.745,24.745,24.745-24.745,24.745,24.745,24.745-24.745" transform="translate(2318.117 -7567.213) rotate(90)" fill="none" stroke="#6e6e6e" stroke-width="3"/>
    </g>
    <path id="Path_272" data-name="Path 272" d="M8179,962.859" transform="translate(-8179)" fill="none" stroke="#707070" stroke-width="1"/>
    <path id="waves" d="M8179,957.817s69.049,51.381,214.016,45.963,208.673-67.636,365.85-67.636,140.268,62.218,262.858,67.636,181.771-3.306,227.5-45.963c23.231-21.67,33.3-50.66,22.152-81.826s-66.73-42.839-66.73-42.839,52.741-39.158,107.312-10.336c24.721,13.056,62.3,67.342,105.647,99.676,51.935,38.737,110.191,55.155,137.519,55.155,49.958,0,67.636-29.206,67.636-29.206V1079.1H8179Z" transform="translate(-8179)" fill="#484848"/>
    <path id="Path_274" data-name="Path 274" d="M9299.5,906.954s-9.554,38.535-24.521,53.184-45.489,32.211-45.489,32.211,37.959-8.282,56.161-29.653c8.719-10.236,13.125-23.088,14.485-34.376A72.835,72.835,0,0,0,9299.5,906.954Z" transform="translate(-8191 1)" fill="#ededed"/>
    <path id="Path_276" data-name="Path 276" d="M9254,905.03s-3.007,12.2-7.277,21.1-10.213,18.588-10.213,18.588,8.778-1.966,13.261-15.31A79.132,79.132,0,0,0,9254,905.03Z" transform="translate(451.872 10111.596) rotate(-92)" fill="#ededed"/>
    <path id="Path_277" data-name="Path 277" d="M9299.515,906.207s-1.635,34.319-17.217,61.043-41.144,53.218-41.144,53.218,27.065-19.77,47.539-45.307S9299.515,906.207,9299.515,906.207Z" transform="matrix(-0.035, -0.999, 0.999, -0.035, 481.454, 10147.478)" fill="#ededed"/>
    <path id="Path_278" data-name="Path 278" d="M9299.5,906.954s-8.271,35.989-24.884,52.58c-12.881,16.612-39.538,24.782-39.538,24.782s32.37-.249,50.572-21.62S9299.5,906.954,9299.5,906.954Z" transform="translate(-6870.93 5743.873) rotate(-37)" fill="#ededed"/>
    <path id="Path_279" data-name="Path 279" d="M9299.5,906.954s-7.977,42.184-19.808,81.61-19.811,58.933-27.516,76.094c-13.814,33.623-22.462,56.162-46.97,90.93-34.279,48.63-81.381,83.574-81.381,83.574a331.209,331.209,0,0,0,27.838-19.228c18.068-13.817,42.919-35.287,63.974-62.224,24-30.709,32.712-50.822,48.536-89.28,8.949-20.624,19.021-52.751,25.271-83.694A604.071,604.071,0,0,0,9299.5,906.954Z" transform="translate(3498.117 9791.624) rotate(-115)" fill="#ededed"/>
    <path id="Path_280" data-name="Path 280" d="M9466.653,966.095s55.317,26.884,92.573,24.758,66.653-24.758,66.653-24.758-26.96,42.115-66.653,40.9S9466.653,966.095,9466.653,966.095Z" transform="translate(-8179)" fill="#ededed"/>
    <path id="Path_281" data-name="Path 281" d="M9466.653,966.095s102.139,36.26,172.389,34.134a797.147,797.147,0,0,0,128.1-14.532s-51.095,25.431-125.942,24.22S9466.653,966.095,9466.653,966.095Z" transform="translate(-9459 17)" fill="#ededed"/>
  </g>
</svg>
