<svg xmlns="http://www.w3.org/2000/svg" width="111.84" height="85.316" viewBox="0 0 111.84 85.316">
  <g id="quantumAcademiaLog" transform="translate(-419.464 -345.9)">
    <path id="Path_1" data-name="Path 1" d="M454.246,366.091l71.316-15.848,1.387,3.764-72.7,13.471Z" fill="#efc35b"/>
    <path id="Path_2" data-name="Path 2" d="M464.3,373.439v-1.11l50.217-11.722.971,5.133Z" fill="#efc35b"/>
    <path id="Path_3" data-name="Path 3" d="M459.169,383.08v-1.11L522.5,369l.971,3.191Z" fill="#efc35b"/>
    <path id="Path_4" data-name="Path 4" d="M458.2,388.559v-1.04l72.343-10.682.763,3.468Z" fill="#efc35b"/>
    <path id="Path_5" data-name="Path 5" d="M468.81,404.166s.208-.832.416-.832,45.639-2.22,45.639-2.22v3.4Z" fill="#efc35b"/>
    <path id="Path_6" data-name="Path 6" d="M478.312,398.617v-1.11l45.778-4.994v4.994Z" fill="#efc35b"/>
    <g id="Group_1" data-name="Group 1">
      <g id="Rectangle_1" data-name="Rectangle 1" transform="translate(477 409)" fill="#fff" stroke="#efc35b" stroke-width="1">
        <rect width="1" height="1" stroke="none"/>
        <rect x="0.5" y="0.5" fill="none"/>
      </g>
      <g id="Rectangle_2" data-name="Rectangle 2" transform="translate(481 409)" fill="#fff" stroke="#efc35b" stroke-width="1">
        <rect width="1" height="1" stroke="none"/>
        <rect x="0.5" y="0.5" fill="none"/>
      </g>
      <g id="Rectangle_3" data-name="Rectangle 3" transform="translate(485 409)" fill="#fff" stroke="#efc35b" stroke-width="1">
        <rect width="1" height="1" stroke="none"/>
        <rect x="0.5" y="0.5" fill="none"/>
      </g>
      <g id="Rectangle_4" data-name="Rectangle 4" transform="translate(489 409)" fill="#fff" stroke="#efc35b" stroke-width="1">
        <rect width="1" height="1" stroke="none"/>
        <rect x="0.5" y="0.5" fill="none"/>
      </g>
      <g id="Rectangle_5" data-name="Rectangle 5" transform="translate(493 409)" fill="#fff" stroke="#efc35b" stroke-width="1">
        <rect width="1" height="1" stroke="none"/>
        <rect x="0.5" y="0.5" fill="none"/>
      </g>
      <g id="Rectangle_6" data-name="Rectangle 6" transform="translate(497 409)" fill="#fff" stroke="#efc35b" stroke-width="1">
        <rect width="1" height="1" stroke="none"/>
        <rect x="0.5" y="0.5" fill="none"/>
      </g>
    </g>
    <g id="spottedSquare1">
      <g id="Rectangle_7" data-name="Rectangle 7" transform="matrix(0.978, -0.208, 0.208, 0.978, 446.907, 355.115)" fill="#fff" stroke="#efc35b" stroke-width="1">
        <rect width="1" height="1" stroke="none"/>
        <rect x="0.5" y="0.5" fill="none"/>
      </g>
      <g id="Rectangle_8" data-name="Rectangle 8" transform="matrix(0.974, -0.225, 0.225, 0.974, 450.9, 354.125)" fill="#fff" stroke="#efc35b" stroke-width="1">
        <rect width="1" height="1" stroke="none"/>
        <rect x="0.5" y="0.5" fill="none"/>
      </g>
      <g id="Rectangle_10" data-name="Rectangle 10" transform="matrix(0.974, -0.225, 0.225, 0.974, 454.9, 353.125)" fill="#fff" stroke="#efc35b" stroke-width="1">
        <rect width="1" height="1" stroke="none"/>
        <rect x="0.5" y="0.5" fill="none"/>
      </g>
      <g id="Rectangle_11" data-name="Rectangle 11" transform="matrix(0.978, -0.208, 0.208, 0.978, 458.907, 352.115)" fill="#fff" stroke="#efc35b" stroke-width="1">
        <rect width="1" height="1" stroke="none"/>
        <rect x="0.5" y="0.5" fill="none"/>
      </g>
      <g id="Rectangle_12" data-name="Rectangle 12" transform="matrix(0.97, -0.242, 0.242, 0.97, 462.894, 351.136)" fill="#fff" stroke="#efc35b" stroke-width="1">
        <rect width="1" height="1" stroke="none"/>
        <rect x="0.5" y="0.5" fill="none"/>
      </g>
      <g id="Rectangle_13" data-name="Rectangle 13" transform="matrix(0.974, -0.225, 0.225, 0.974, 466.9, 350.125)" fill="#fff" stroke="#efc35b" stroke-width="1">
        <rect width="1" height="1" stroke="none"/>
        <rect x="0.5" y="0.5" fill="none"/>
      </g>
      <g id="Rectangle_14" data-name="Rectangle 14" transform="matrix(0.97, -0.242, 0.242, 0.97, 470.894, 349.136)" fill="#fff" stroke="#efc35b" stroke-width="1">
        <rect width="1" height="1" stroke="none"/>
        <rect x="0.5" y="0.5" fill="none"/>
      </g>
      <g id="Rectangle_15" data-name="Rectangle 15" transform="matrix(0.97, -0.242, 0.242, 0.97, 474.894, 348.136)" fill="#fff" stroke="#efc35b" stroke-width="1">
        <rect width="1" height="1" stroke="none"/>
        <rect x="0.5" y="0.5" fill="none"/>
      </g>
      <g id="Rectangle_16" data-name="Rectangle 16" transform="matrix(0.966, -0.259, 0.259, 0.966, 478.888, 347.146)" fill="#fff" stroke="#efc35b" stroke-width="1">
        <rect width="1" height="1" stroke="none"/>
        <rect x="0.5" y="0.5" fill="none"/>
      </g>
      <g id="Rectangle_17" data-name="Rectangle 17" transform="matrix(0.974, -0.225, 0.225, 0.974, 482.9, 346.125)" fill="#fff" stroke="#efc35b" stroke-width="1">
        <rect width="1" height="1" stroke="none"/>
        <rect x="0.5" y="0.5" fill="none"/>
      </g>
    </g>
    <g id="spottedSquare1-2" data-name="spottedSquare1" transform="translate(17 1)">
      <g id="Rectangle_7-2" data-name="Rectangle 7" transform="matrix(0.978, -0.208, 0.208, 0.978, 446.907, 355.115)" fill="#fff" stroke="#efc35b" stroke-width="1">
        <rect width="1" height="1" stroke="none"/>
        <rect x="0.5" y="0.5" fill="none"/>
      </g>
      <g id="Rectangle_8-2" data-name="Rectangle 8" transform="matrix(0.974, -0.225, 0.225, 0.974, 450.9, 354.125)" fill="#fff" stroke="#efc35b" stroke-width="1">
        <rect width="1" height="1" stroke="none"/>
        <rect x="0.5" y="0.5" fill="none"/>
      </g>
      <g id="Rectangle_10-2" data-name="Rectangle 10" transform="matrix(0.974, -0.225, 0.225, 0.974, 454.9, 353.125)" fill="#fff" stroke="#efc35b" stroke-width="1">
        <rect width="1" height="1" stroke="none"/>
        <rect x="0.5" y="0.5" fill="none"/>
      </g>
      <g id="Rectangle_11-2" data-name="Rectangle 11" transform="matrix(0.978, -0.208, 0.208, 0.978, 458.907, 352.115)" fill="#fff" stroke="#efc35b" stroke-width="1">
        <rect width="1" height="1" stroke="none"/>
        <rect x="0.5" y="0.5" fill="none"/>
      </g>
      <g id="Rectangle_12-2" data-name="Rectangle 12" transform="matrix(0.97, -0.242, 0.242, 0.97, 462.894, 351.136)" fill="#fff" stroke="#efc35b" stroke-width="1">
        <rect width="1" height="1" stroke="none"/>
        <rect x="0.5" y="0.5" fill="none"/>
      </g>
      <g id="Rectangle_13-2" data-name="Rectangle 13" transform="matrix(0.974, -0.225, 0.225, 0.974, 466.9, 350.125)" fill="#fff" stroke="#efc35b" stroke-width="1">
        <rect width="1" height="1" stroke="none"/>
        <rect x="0.5" y="0.5" fill="none"/>
      </g>
      <g id="Rectangle_14-2" data-name="Rectangle 14" transform="matrix(0.97, -0.242, 0.242, 0.97, 470.894, 349.136)" fill="#fff" stroke="#efc35b" stroke-width="1">
        <rect width="1" height="1" stroke="none"/>
        <rect x="0.5" y="0.5" fill="none"/>
      </g>
      <g id="Rectangle_15-2" data-name="Rectangle 15" transform="matrix(0.97, -0.242, 0.242, 0.97, 474.894, 348.136)" fill="#fff" stroke="#efc35b" stroke-width="1">
        <rect width="1" height="1" stroke="none"/>
        <rect x="0.5" y="0.5" fill="none"/>
      </g>
      <g id="Rectangle_16-2" data-name="Rectangle 16" transform="matrix(0.966, -0.259, 0.259, 0.966, 478.888, 347.146)" fill="#fff" stroke="#efc35b" stroke-width="1">
        <rect width="1" height="1" stroke="none"/>
        <rect x="0.5" y="0.5" fill="none"/>
      </g>
      <g id="Rectangle_17-2" data-name="Rectangle 17" transform="matrix(0.974, -0.225, 0.225, 0.974, 482.9, 346.125)" fill="#fff" stroke="#efc35b" stroke-width="1">
        <rect width="1" height="1" stroke="none"/>
        <rect x="0.5" y="0.5" fill="none"/>
      </g>
    </g>
    <g id="Path_7" data-name="Path 7" transform="translate(429 359)" fill="none">
      <path d="M40.249-5.406C58.2-5.406,70.075,14.551,70.075,32.5S50.449,67.334,32.5,67.334,0,50.449,0,32.5,22.3-5.406,40.249-5.406Z" stroke="none"/>
      <path d="M 40.24935913085938 -4.406005859375 C 36.09550857543945 -4.406005859375 31.44845581054688 -3.263130187988281 26.81059646606445 -1.100963592529297 C 22.34486770629883 0.9809684753417969 17.9401969909668 3.972457885742188 14.07277679443359 7.550098419189453 C 10.16534805297852 11.16475677490234 6.905258178710938 15.2899284362793 4.644935607910156 19.47964477539063 C 3.471290588378906 21.65513610839844 2.566253662109375 23.84614562988281 1.954994201660156 25.99180603027344 C 1.321304321289063 28.21621704101563 1 30.40588569641113 1 32.49999618530273 C 1 36.77606582641602 1.835174560546875 41.02993774414063 3.482345581054688 45.14345550537109 C 5.087913513183594 49.15310668945313 7.367828369140625 52.79741668701172 10.25872802734375 55.97516632080078 C 13.18605804443359 59.19294738769531 16.55827713012695 61.72928619384766 20.28170776367188 63.51372528076172 C 24.18693542480469 65.38529968261719 28.29776763916016 66.33425903320313 32.49999618530273 66.33425903320313 C 36.68911743164063 66.33425903320313 41.20195770263672 65.35275268554688 45.55066680908203 63.49584579467773 C 49.76925659179688 61.69450759887695 53.84856796264648 59.07010650634766 57.34756851196289 55.90634536743164 C 64.80023956298828 49.16776657104492 69.07455444335938 40.636474609375 69.07455444335938 32.49999618530273 C 69.07455444335938 28.1790657043457 68.35209655761719 23.61705780029297 66.98526763916016 19.30714797973633 C 65.60886383056641 14.96704483032227 63.56743621826172 10.8498649597168 61.08165740966797 7.40069580078125 C 58.44794845581055 3.74627685546875 55.38328552246094 0.8705558776855469 51.97280883789063 -1.146583557128906 C 48.31606674194336 -3.309371948242188 44.37172698974609 -4.406005859375 40.24935913085938 -4.406005859375 M 40.24935913085938 -5.406005859375 C 58.1986083984375 -5.406005859375 70.07455444335938 14.55074691772461 70.07455444335938 32.49999618530273 C 70.07455444335938 50.44925689697266 50.44925689697266 67.33425903320313 32.49999618530273 67.33425903320313 C 14.55074691772461 67.33425903320313 0 50.44925689697266 0 32.49999618530273 C 0 14.55074691772461 22.30010604858398 -5.406005859375 40.24935913085938 -5.406005859375 Z" stroke="none" fill="#efc35b"/>
    </g>
    <g id="Path_8" data-name="Path 8" transform="translate(442.67 428.523) rotate(-107)" fill="none">
      <path d="M28.12-5.713c15.544,0,32.566,17.59,32.566,33.134s-17,30.167-32.54,30.167S-1.069,43.531-1.069,27.987,12.576-5.713,28.12-5.713Z" stroke="none"/>
      <path d="M 28.11982917785645 -4.712844848632813 C 24.55630874633789 -4.712844848632813 20.98015975952148 -3.719764709472656 17.49073791503906 -1.761184692382813 C 14.24837875366211 0.05872726440429688 11.12807846069336 2.723365783691406 8.467178344726563 5.944664001464844 C 3.121978759765625 12.41559600830078 -0.06917953491210938 20.65561485290527 -0.06917953491210938 27.9867057800293 C -0.06917953491210938 31.64114570617676 0.7032508850097656 35.26941680908203 2.226657867431641 38.77073669433594 C 3.697280883789063 42.15073394775391 5.781837463378906 45.22758483886719 8.422439575195313 47.91581726074219 C 11.06913757324219 50.61026382446289 14.10086822509766 52.73702621459961 17.43338775634766 54.23699569702148 C 20.89957809448242 55.79713439941406 24.50365829467773 56.58819580078125 28.14550971984863 56.58819580078125 C 31.75541877746582 56.58819580078125 35.64541625976563 55.74191665649414 39.39496612548828 54.14085388183594 C 43.03485107421875 52.58662414550781 46.55471038818359 50.32208633422852 49.57402801513672 47.59206390380859 C 56.00009918212891 41.78169631958008 59.68564987182617 34.42969512939453 59.68564987182617 27.42118453979492 C 59.68564987182617 23.85330581665039 58.71596908569336 19.94491577148438 56.88143920898438 16.11855697631836 C 55.12039947509766 12.44545364379883 52.57374954223633 8.851104736328125 49.51679992675781 5.724094390869141 C 46.45082855224609 2.587863922119141 42.92433929443359 -0.02335357666015625 39.31858825683594 -1.827243804931641 C 35.49127960205078 -3.741992950439453 31.72346878051758 -4.712844848632813 28.11982917785645 -4.712844848632813 M 28.11982917785645 -5.712844848632813 C 43.66416931152344 -5.712844848632813 60.68564987182617 11.87685394287109 60.68564987182617 27.42118453979492 C 60.68564987182617 42.96551513671875 43.68983840942383 57.58819580078125 28.14550971984863 57.58819580078125 C 12.60116958618164 57.58819580078125 -1.069179534912109 43.53103637695313 -1.069179534912109 27.9867057800293 C -1.069179534912109 12.44237518310547 12.57550048828125 -5.712844848632813 28.11982917785645 -5.712844848632813 Z" stroke="none" fill="#efc35b"/>
    </g>
    <path id="Path_9" data-name="Path 9" d="M436.276,398.617c.385,8.306,13.523,35.25,41.946,27.6,9.585-2.7,36.2-26,18.864-49.454-18.736-26-49.062-22.032-57.993-14.913-29.57,27.149,5.1,61.435,9.776,62.824" fill="none" stroke="#efc35b" stroke-width="1"/>
    <path id="Path_10" data-name="Path 10" d="M462.291,395.565v-1.209l45.069-7.291v3.811Z" fill="#efc35b"/>
  </g>
</svg>
